<svg width="75.000000" height="16.602005" viewBox="0 0 75 16.602" fill="none" xmlns="http://www.w3.org/2000/svg" xmlns:xlink="http://www.w3.org/1999/xlink">
	<desc>
			Created with Pixso.
	</desc>
	<defs/>
	<g style="mix-blend-mode:normal">
		<path id="BOOKLY" d="M34.104 13.104C32.28 13.104 30.735 12.471 29.469 11.205C28.8903 10.6263 28.4438 9.98807 28.1297 9.29028C27.7566 8.46152 27.57 7.54877 27.57 6.552C27.57 4.716 28.203 3.16501 29.469 1.89899C30.0618 1.30615 30.7159 0.852112 31.431 0.536896C32.2432 0.178955 33.1342 0 34.104 0C35.928 0 37.476 0.632996 38.748 1.89899C40.02 3.16501 40.656 4.716 40.656 6.552C40.656 8.388 40.02 9.942 38.748 11.214C37.476 12.474 35.928 13.104 34.104 13.104ZM18.348 16.104C16.524 16.104 14.979 15.471 13.713 14.205C13.1343 13.6263 12.6879 12.9881 12.3737 12.2903C12.0005 11.4615 11.814 10.5488 11.814 9.552C11.814 7.716 12.447 6.16501 13.713 4.899C14.979 3.633 16.524 3 18.348 3C20.172 3 21.72 3.633 22.992 4.899C24.264 6.16501 24.9 7.716 24.9 9.552C24.9 11.388 24.264 12.942 22.992 14.214C21.72 15.474 20.172 16.104 18.348 16.104ZM7.28436 15.4154C6.71228 15.7065 6.06616 15.852 5.34601 15.852L0 15.852L0 3.25201L4.96802 3.25201C5.67969 3.25201 6.31708 3.39661 6.88025 3.68579L6.88037 3.68585C7.17181 3.83551 7.44336 4.0239 7.69501 4.25101C8.43298 4.91699 8.802 5.76599 8.802 6.798C8.802 7.35826 8.68793 7.85977 8.4599 8.30252C8.26294 8.68481 7.98096 9.0233 7.61401 9.31799C8.71802 9.95399 9.27002 10.914 9.27002 12.198C9.27002 13.266 8.89203 14.142 8.13599 14.826C7.87317 15.0638 7.58929 15.2603 7.28436 15.4154ZM46.386 9.948L46.386 15.852L43.902 15.852L43.902 3.25201L46.386 3.25201L46.386 8.814L50.706 3.25201L53.568 3.25201L48.906 9.37199L53.748 15.852L50.886 15.852L46.386 9.948ZM63.762 13.476L63.762 15.852L56.472 15.852L56.472 3.25201L58.956 3.25201L58.956 13.476L63.762 13.476ZM70.68 10.938L70.68 15.852L68.214 15.852L68.214 10.938L63.912 3.25201L66.72 3.25201L69.456 8.508L72.192 3.25201L75 3.25201L70.68 10.938Z" clip-rule="evenodd" fill="#FFFFFF" fill-opacity="1.000000" fill-rule="evenodd"/>
	</g>
	<g style="mix-blend-mode:normal">
		<path id="Path 72" d="" fill="#D8D8D8" fill-opacity="0" fill-rule="nonzero"/>
		<path id="Path 72" d="M29.83 15.85L38.83 15.85" stroke="#FFFFFF" stroke-opacity="1.000000" stroke-width="1.500000"/>
	</g>
</svg>
